PathFileType	4	(X/Y/Z)	C249e_D251_DD_1_S001_1.trc
DataRate	CameraRate	NumFrames	NumMarkers	Units	OrigDataRate	OrigDataStartFrame	OrigNumFrames
50.0	50.0	5	54	mm	50.0	40	314
Frame#	Time		Q_WaistRFront		Q_WaistLFront		Q_WaistL		Q_WaistR		Q_WaistBack		Q_LThighFrontLow		Q_RThighFrontLow		Q_RKneeIn		Q_RKneeOut		Q_RShinFrontHigh		Q_LKneeIn		Q_LKneeOut		Q_LShinFrontHigh		Q_RForefoot5		Q_RForefoot2		Q_RHeelBack		Q_RAnkleOut		Q_LForefoot5		Q_LForefoot2		Q_LHeelBack		Q_LAnkleOut		Q_SpineThoracic2		Q_Chest		Q_SpineThoracic12		Q_HeadL		Q_HeadR		Q_HeadFront		Q_LShoulderTop		Q_LArm		Q_LElbowOut		Q_LElbowIn		Q_LWristOut		Q_LWristIn		Q_LHand2		Q_RShoulderTop		Q_RArm		Q_RElbowOut		Q_RElbowIn		Q_RWristOut		Q_RWristIn		Q_RHand2		RHipAngles		LHipAngles		RKneeAngles		LKneeAngles		RAnkleAngles		LAnkleAngles		RShoulderAngles		LShoulderAngles		RElbowAngles		LElbowAngles		RWristAngles		LWristAngles		Neck
			X1	Y1	Z1	X2	Y2	Z2	X3	Y3	Z3	X4	Y4	Z4	X5	Y5	Z5	X6	Y6	Z6	X7	Y7	Z7	X8	Y8	Z8	X9	Y9	Z9	X10	Y10	Z10	X11	Y11	Z11	X12	Y12	Z12	X13	Y13	Z13	X14	Y14	Z14	X15	Y15	Z15	X16	Y16	Z16	X17	Y17	Z17	X18	Y18	Z18	X19	Y19	Z19	X20	Y20	Z20	X21	Y21	Z21	X22	Y22	Z22	X23	Y23	Z23	X24	Y24	Z24	X25	Y25	Z25	X26	Y26	Z26	X27	Y27	Z27	X28	Y28	Z28	X29	Y29	Z29	X30	Y30	Z30	X31	Y31	Z31	X32	Y32	Z32	X33	Y33	Z33	X34	Y34	Z34	X35	Y35	Z35	X36	Y36	Z36	X37	Y37	Z37	X38	Y38	Z38	X39	Y39	Z39	X40	Y40	Z40	X41	Y41	Z41	X42	Y42	Z42	X43	Y43	Z43	X44	Y44	Z44	X45	Y45	Z45	X46	Y46	Z46	X47	Y47	Z47	X48	Y48	Z48	X49	Y49	Z49	X50	Y50	Z50	X51	Y51	Z51	X52	Y52	Z52	X53	Y53	Z53	X54	Y54	Z54

40	0.78000	93.08502	839.63257	193.26448	-163.12233	838.57819	205.25970	-160.09012	848.96442	270.93765	96.11722	850.01886	258.94247	-31.98645	849.49164	264.94006	-88.81046	471.78629	258.69940	29.58296	472.64505	235.27530	-28.08399	421.02081	249.66399	111.87918	417.91284	250.47681	37.41362	218.55707	253.96455	-31.73613	420.88287	279.07166	-171.42743	417.30206	270.49738	-95.74862	218.49533	263.52533	114.58833	35.44864	203.89812	64.91356	37.69876	198.66794	49.55201	29.23109	340.92410	103.16987	64.47968	328.66071	-170.68774	44.63157	194.97415	-120.74599	43.78493	192.71498	-114.69434	22.76717	334.36993	-165.02890	62.58995	322.19189	-28.34657	1304.82227	368.74570	-40.17683	740.30981	79.17253	-28.34657	1304.82227	368.74570	-93.66737	1481.38110	244.12993	46.04411	1474.11621	249.41422	-21.04268	1480.15234	176.86816	-177.30849	1302.67590	274.90790	-232.67418	1106.94348	260.37848	-249.89430	1020.98663	200.69708	-200.86060	997.91071	284.73990	-271.86386	786.05981	226.96140	-228.48253	787.96265	202.17354	-267.62793	687.08685	195.53641	113.88740	1306.21301	264.34818	165.96223	1108.45959	259.21881	192.79570	1023.40607	201.83556	127.02477	999.94196	273.41507	205.08232	787.69531	227.38214	167.82628	790.85742	194.18591	192.32913	689.90912	210.02060	-8.83032	-6.17372	3.09069	-6.44530	-6.19759	-5.39967	-6.72034	4.67943	0.09691	0.06728	5.24004	-0.19931	-10.36108	5.95068	-0.96197	-11.02738	5.88103	3.31443	3.21840	-47.01523	78.93836	-2.05667	62.16165	80.04814	-4.84372	62.16165	43.58626	-5.39689	-0.00000	43.58626	-15.85038	-2.57964	43.58626	-5.28375	-14.87549	-0.00000	-11.60518	-2.14583	1.98305
41	0.80000	93.35832	839.63165	193.15968	-162.84682	838.55951	205.19952	-159.80328	848.89331	270.88522	96.40185	849.96545	258.84543	-31.70073	849.42938	264.86533	-88.55141	471.71420	258.86304	29.88302	472.60062	234.99690	-27.78047	420.96326	249.33907	112.18273	417.87018	250.19855	37.73797	218.50406	253.53505	-31.53715	420.83838	279.43585	-171.20285	417.22729	270.46643	-95.46943	218.42981	263.83356	114.95773	35.44790	203.38091	65.28326	37.67290	198.13730	49.88482	29.12540	340.38470	103.48655	64.41006	328.15469	-170.36472	44.29826	195.28828	-120.42065	43.37275	193.11232	-114.62749	22.77770	334.84018	-164.88472	62.63573	322.45978	-28.11800	1304.68433	369.03442	-39.84443	740.40106	79.01083	-28.11800	1304.68433	369.03442	-93.66816	1481.18457	244.76236	46.06658	1474.29260	249.92970	-21.10390	1480.00098	177.43460	-176.95091	1302.73499	275.25879	-232.69185	1107.13623	260.57666	-250.20161	1021.31671	200.78197	-201.06616	997.99530	284.69754	-271.61209	786.22937	226.05362	-228.24957	788.33875	201.24957	-267.40591	687.33569	194.84491	114.21220	1306.35596	264.28485	166.33199	1108.59375	259.17331	192.70982	1023.35077	201.85989	127.46124	1000.13605	273.99658	205.13354	787.72180	228.08516	167.63545	790.78430	195.15320	192.04092	689.92395	210.72806	-8.80863	-6.17373	3.09678	-6.35927	-6.17712	-5.53502	-6.70617	4.68012	0.11896	0.06814	5.22307	-0.22065	-10.35639	5.94596	-0.93635	-10.89439	5.94427	3.40903	3.33681	-47.52205	79.02953	-2.03027	62.01457	79.90738	-4.85341	62.01457	43.63068	-5.65721	-0.00000	43.63068	-15.68170	-2.37682	43.63068	-5.45932	-14.96283	-0.00000	-11.77269	-1.98136	2.01279
42	0.82000	92.79391	839.71997	193.36610	-163.41133	838.46033	205.38554	-160.38022	848.76526	271.07635	95.82503	850.02490	259.05695	-32.27760	849.39508	265.06665	-88.71185	471.65729	259.06335	29.55919	472.60403	235.35587	-28.07024	420.92807	249.77069	111.89584	417.94693	250.55074	37.61210	218.52286	254.00920	-31.66929	420.83456	279.49948	-171.34396	417.08292	270.72897	-95.42390	218.35806	264.05225	114.97089	35.52706	203.88957	65.29140	37.69326	198.66901	49.97123	29.18766	340.92740	103.52682	64.52826	328.65680	-170.35921	44.60872	195.65404	-120.42075	43.63329	193.37358	-114.36113	22.66812	335.03601	-164.59901	62.61364	322.86069	-29.06679	1304.67578	369.22876	-40.26541	740.34747	79.27196	-29.06679	1304.67578	369.22876	-94.52148	1481.01086	244.33020	45.20292	1474.22864	249.90640	-21.77191	1479.62427	177.20660	-177.84656	1302.53003	274.97632	-233.19450	1106.82678	260.21619	-250.41472	1020.95557	200.41158	-201.41714	997.75281	284.44058	-272.32135	785.97729	226.26538	-228.92775	787.93634	201.50337	-268.19919	686.75500	197.26793	113.40813	1306.33691	264.56055	165.84276	1108.69788	259.40829	192.27498	1023.47723	202.08675	127.23329	1000.16718	274.37933	205.21263	787.88391	228.38304	167.63495	790.86005	195.53398	192.01030	689.97913	211.06390	-8.74566	-6.17949	3.09123	-6.34027	-6.19678	-5.65218	-6.69626	4.69163	0.08738	0.06704	5.22267	-0.00285	-10.35743	5.95030	-0.91635	-11.06607	5.95683	3.54356	3.31801	-47.74676	78.96770	-2.03251	62.03746	79.99297	-4.82724	62.03746	43.62804	-5.37801	-0.00000	43.62804	-15.48782	-2.38624	43.62804	-6.59163	-14.93967	-0.00000	-11.96648	-1.95178	2.05995
43	0.84000	93.46593	839.76904	193.45424	-162.76750	838.68420	204.87463	-159.88266	848.96082	270.57648	96.35076	850.04565	259.15613	-31.76595	849.50323	264.86630	-88.45228	471.80203	258.93143	29.75683	472.68585	235.25761	-27.96515	421.07996	249.49825	111.99439	417.93085	250.68561	37.46170	218.59576	253.91069	-31.54827	420.94574	279.67590	-171.18042	417.29559	270.21356	-95.37710	218.51189	263.97845	114.90280	35.68631	204.03632	65.23454	37.71489	198.65585	49.48254	29.23494	340.86859	102.98082	64.71529	328.75229	-170.15321	44.31941	195.35425	-120.20747	43.18118	193.32263	-114.90118	22.93055	335.11917	-164.95718	62.96432	322.49298	-28.39268	1304.77124	369.11188	-39.54865	740.48682	79.06818	-28.39268	1304.77124	369.11188	-93.62440	1481.31348	244.29295	46.09752	1474.06787	249.32112	-21.13426	1479.87146	176.89044	-177.12845	1302.64233	275.44324	-232.22517	1106.80151	260.84625	-249.62567	1020.97424	201.03082	-200.04347	997.76782	284.71518	-270.98013	785.93475	226.78960	-227.75217	787.98956	201.74722	-267.59238	686.95740	196.86743	114.06019	1306.15161	264.62427	166.17361	1108.44946	259.33661	192.52364	1023.24390	201.95477	127.40820	999.95801	274.18878	205.04782	787.59747	227.97461	167.49077	790.67694	195.11148	192.16138	689.89325	210.62560	-8.72352	-6.20400	3.09862	-6.28836	-6.18545	-5.78130	-6.69022	4.68361	0.11065	0.07482	5.22374	-0.00891	-10.34989	5.95359	-0.68980	-10.79271	5.95256	3.65755	3.29437	-47.63235	79.02531	-2.02078	61.70547	80.07903	-4.92828	61.70547	43.64006	-5.33906	-0.00000	43.64006	-15.89237	-2.33547	43.64006	-6.58148	-14.88670	-0.00000	-11.82580	-2.17869	1.94682
44	0.86000	93.11768	839.76184	194.24052	-163.12115	838.46014	205.51559	-160.28185	848.70380	271.22458	95.95698	850.00543	259.94952	-32.16243	849.35461	265.58704	-88.33183	471.63678	259.26572	29.72176	472.59738	235.85541	-27.96132	420.93890	250.05858	112.00031	417.90662	251.29660	37.63367	218.50769	254.40457	-31.36694	420.78268	279.92593	-170.99860	417.05417	270.48672	-95.06929	218.32635	264.00580	115.38210	35.88811	204.49516	65.70837	37.69669	199.08688	49.91338	29.10923	341.28842	103.25985	64.83088	329.21185	-170.01811	44.60000	195.25487	-120.08339	43.15259	193.15080	-114.70465	22.64685	334.90793	-164.52687	63.01267	322.41501	-29.12199	1304.61975	369.93524	-39.85016	740.37299	79.80217	-29.12199	1304.61975	369.93524	-94.69139	1480.97095	244.92105	45.03149	1474.20142	250.55034	-21.91065	1479.70837	177.82880	-177.99246	1302.66699	275.45642	-232.95662	1106.75781	260.74188	-249.96111	1020.85175	200.92563	-200.81177	997.77716	284.90128	-271.41434	785.84729	226.92160	-228.05688	787.87177	202.10159	-267.53848	686.75604	197.51611	113.33170	1305.95508	265.31909	165.74409	1108.39355	259.76944	192.22391	1023.31696	202.25624	127.25773	999.79266	274.54733	205.44356	787.68732	228.08319	167.84016	790.68542	195.26558	192.02539	689.87817	210.97997	-8.71447	-6.19805	3.10310	-6.32363	-6.22417	-5.81046	-6.68799	4.68012	0.09371	0.08344	5.26955	0.06702	-10.36214	5.95217	-0.48102	-10.83129	5.96422	4.06126	3.23337	-47.67768	78.93862	-2.02722	62.04898	80.13970	-4.83185	62.04898	43.58013	-5.26374	-0.00000	43.58013	-15.76307	-2.16986	43.58013	-6.65067	-14.65435	-0.00000	-11.87487	-1.97965	2.06029
